<svg xmlns="http://www.w3.org/2000/svg" viewBox="0 0 222 76.81"><defs><style>.cls-1{fill:#b67752;}</style></defs><title>Asset 15</title><g id="Layer_2" data-name="Layer 2"><g id="Layer_2-2" data-name="Layer 2"><path d="M51.29,23.05a3.93,3.93,0,0,0-.4-1.86,1.28,1.28,0,0,0-1.23-.77,1.47,1.47,0,0,0-1.34.66,2.67,2.67,0,0,0-.43,1.49,2.59,2.59,0,0,0,.69,1.9,6.33,6.33,0,0,0,1.73,1.21c.69.34,1.44.69,2.24,1a10.3,10.3,0,0,1,2.24,1.39,6.77,6.77,0,0,1,1.73,2.23A8.15,8.15,0,0,1,57.21,34q0,3.9-2,5.65a8.39,8.39,0,0,1-5.76,1.76A13.43,13.43,0,0,1,46.31,41,5.35,5.35,0,0,1,44,39.91a5,5,0,0,1-1.43-2.1,9.11,9.11,0,0,1-.49-3.21v-.86h5.52v.58a3.53,3.53,0,0,0,.52,2.21,1.68,1.68,0,0,0,1.35.63,1.56,1.56,0,0,0,1.36-.68,2.87,2.87,0,0,0,.48-1.68,2.64,2.64,0,0,0-.66-1.89A5.76,5.76,0,0,0,49,31.71c-.67-.33-1.39-.67-2.17-1a9.32,9.32,0,0,1-2.16-1.33A6.35,6.35,0,0,1,43,27.22a7.9,7.9,0,0,1-.66-3.49,8.16,8.16,0,0,1,1.77-5.67,7,7,0,0,1,5.4-1.95q3.75,0,5.41,1.8t1.68,5.72H51.29Z"/><path d="M59,23A11.13,11.13,0,0,1,60.3,19a5.63,5.63,0,0,1,2.43-2.22,10,10,0,0,1,7.36,0A5.56,5.56,0,0,1,72.51,19,11.32,11.32,0,0,1,73.83,23a37.09,37.09,0,0,1,.4,5.83,37.09,37.09,0,0,1-.4,5.83,11.19,11.19,0,0,1-1.32,3.92,5.16,5.16,0,0,1-2.42,2.17,10.74,10.74,0,0,1-7.36,0,5.23,5.23,0,0,1-2.43-2.17A11,11,0,0,1,59,34.62a35.92,35.92,0,0,1-.4-5.83A35.92,35.92,0,0,1,59,23Zm5.55,9.91a15.28,15.28,0,0,0,.26,2.58,2.62,2.62,0,0,0,.58,1.34,1.42,1.42,0,0,0,1,.37,1.38,1.38,0,0,0,1-.37A2.71,2.71,0,0,0,68,35.45a16.4,16.4,0,0,0,.26-2.58q.06-1.62.06-4.08t-.06-4.08A16.27,16.27,0,0,0,68,22.13a2.66,2.66,0,0,0-.59-1.34,1.38,1.38,0,0,0-1-.37,1.42,1.42,0,0,0-1,.37,2.58,2.58,0,0,0-.58,1.34,15.16,15.16,0,0,0-.26,2.58q-.06,1.62-.06,4.08T64.54,32.87Z"/><path d="M89.25,16.59v5.19H82V26h6.8v5H82V41H76.28V16.59Z"/><path d="M96.52,16.59V41h-5.7V16.59Z"/><path d="M107.38,21.17a1.25,1.25,0,0,0-1.2-.75,1.42,1.42,0,0,0-1,.37,2.67,2.67,0,0,0-.58,1.34,16.27,16.27,0,0,0-.26,2.58q-.06,1.62-.06,4.08t.06,4.08a16.4,16.4,0,0,0,.26,2.58,2.71,2.71,0,0,0,.58,1.34,1.42,1.42,0,0,0,1,.37,1.3,1.3,0,0,0,.86-.29,1.93,1.93,0,0,0,.52-1,10.1,10.1,0,0,0,.26-1.83c.05-.76.08-1.73.08-2.89h5.52V33a12.19,12.19,0,0,1-.62,4.21,6.6,6.6,0,0,1-1.62,2.57A5.26,5.26,0,0,1,108.86,41a10.86,10.86,0,0,1-2.68.32,10,10,0,0,1-3.93-.65,4.84,4.84,0,0,1-2.39-2.17,11.07,11.07,0,0,1-1.18-3.92,45.84,45.84,0,0,1-.32-5.83,39.47,39.47,0,0,1,.38-5.91A10.66,10.66,0,0,1,100.05,19a5.32,5.32,0,0,1,2.42-2.17,9,9,0,0,1,3.71-.67,8.82,8.82,0,0,1,3.28.55,5.42,5.42,0,0,1,2.19,1.55,6.35,6.35,0,0,1,1.23,2.43,12.51,12.51,0,0,1,.38,3.19v1.54h-5.52V24A7.49,7.49,0,0,0,107.38,21.17Z"/><path d="M115.23,23A11.13,11.13,0,0,1,116.54,19,5.58,5.58,0,0,1,119,16.81a10,10,0,0,1,7.36,0A5.56,5.56,0,0,1,128.75,19,11.32,11.32,0,0,1,130.07,23a37.09,37.09,0,0,1,.4,5.83,37.09,37.09,0,0,1-.4,5.83,11.19,11.19,0,0,1-1.32,3.92,5.16,5.16,0,0,1-2.42,2.17,10.74,10.74,0,0,1-7.36,0,5.18,5.18,0,0,1-2.43-2.17,11,11,0,0,1-1.31-3.92,35.92,35.92,0,0,1-.4-5.83A35.92,35.92,0,0,1,115.23,23Zm5.55,9.91a15.28,15.28,0,0,0,.26,2.58,2.62,2.62,0,0,0,.58,1.34,1.4,1.4,0,0,0,1,.37,1.38,1.38,0,0,0,1-.37,2.71,2.71,0,0,0,.59-1.34,16.4,16.4,0,0,0,.26-2.58q.06-1.62.06-4.08t-.06-4.08a16.27,16.27,0,0,0-.26-2.58,2.66,2.66,0,0,0-.59-1.34,1.38,1.38,0,0,0-1-.37,1.4,1.4,0,0,0-1,.37,2.58,2.58,0,0,0-.58,1.34,15.16,15.16,0,0,0-.26,2.58c0,1.08-.07,2.44-.07,4.08S120.73,31.79,120.78,32.87Z"/><path d="M140.86,16.59a6.37,6.37,0,0,1,2.82.58,5.53,5.53,0,0,1,2,1.59,6.68,6.68,0,0,1,1.15,2.38,11.19,11.19,0,0,1,.37,3c0,2.53-.61,4.42-1.83,5.69A7.09,7.09,0,0,1,140,31.69h-2V41h-5.7V16.59Zm-1.78,10.53a2,2,0,0,0,1.64-.72,3.63,3.63,0,0,0,.57-2.26c0-2-.74-3-2.21-3H138v5.95Z"/><path d="M154.69,16.59v9h3.5V16.59h5.7V41h-5.7v-10h-3.5V41H149V16.59Z"/><path d="M177.35,16.59,182.69,41h-6.07L176,36.72H171.5L170.91,41h-6l5.25-24.4Zm-3.62,5-1.56,10.35h3.19l-1.57-10.35Z"/><path d="M192.56,16.59a7.21,7.21,0,0,1,2.78.48,4.8,4.8,0,0,1,1.87,1.35,5.32,5.32,0,0,1,1,2.07,10.1,10.1,0,0,1,.32,2.59,7.71,7.71,0,0,1-.89,4,3.89,3.89,0,0,1-2.85,1.84V29a3.33,3.33,0,0,1,2.82,1.61,8.1,8.1,0,0,1,.77,3.86V37.5c0,.34,0,.67,0,1s.05.58.09.83a2.38,2.38,0,0,0,.15.58l.25.4a1.31,1.31,0,0,0,.4.36V41h-6.07a4.31,4.31,0,0,1-.32-1.13,11.53,11.53,0,0,1-.16-1.3c0-.43,0-.85-.06-1.25s0-.72,0-1V34.7a13.34,13.34,0,0,0-.1-1.71,3,3,0,0,0-.32-1.07,1.22,1.22,0,0,0-.58-.55,2.28,2.28,0,0,0-.88-.15h-1.5V41h-5.7V16.59Zm-2.08,10.32a2.11,2.11,0,0,0,1.81-.8,3.57,3.57,0,0,0,.58-2.1,3.31,3.31,0,0,0-.57-2.19,2.36,2.36,0,0,0-1.85-.65h-1.11v5.74Z"/><path d="M209.18,16.59,211.48,31h.06l2.3-14.45H222V41h-5.34V22.81h-.06l-3,18.18h-4.11l-3-18.18h-.06V41H201V16.59Z"/><path d="M45.93,46.84a2.12,2.12,0,0,1,1.89,1,4.85,4.85,0,0,1,.64,2.71,4.91,4.91,0,0,1-.64,2.72,2.09,2.09,0,0,1-1.89,1H43.41v5.09H42.32V46.84Zm-.37,6a1.54,1.54,0,0,0,1.37-.57,2.88,2.88,0,0,0,.43-1.71,2.83,2.83,0,0,0-.43-1.7,1.6,1.6,0,0,0-1.37-.58H43.41V52.8Z"/><path d="M53,46.84v5.35h4.34V46.84h1.09V59.29H57.32v-5.7H53v5.7h-1.1V46.84Z"/><path d="M65.75,46.84,69,59.29H67.76l-.9-3.75H63.37l-.93,3.75H61.32l3.21-12.45Zm.76,7.31-1.37-5.81h0l-1.4,5.81Z"/><path d="M75.74,46.84a2.19,2.19,0,0,1,1.84.87,3.88,3.88,0,0,1,.66,2.39,5.28,5.28,0,0,1-.34,2,2,2,0,0,1-1.09,1.17v0a1.26,1.26,0,0,1,.58.35,1.83,1.83,0,0,1,.36.59A3.16,3.16,0,0,1,78,55c0,.28.07.57.1.88l0,.92c0,.31,0,.62.06.92a7.57,7.57,0,0,0,.13.87,2.91,2.91,0,0,0,.26.72H77.31a1.33,1.33,0,0,1-.16-.52c0-.22,0-.47-.05-.74s0-.57,0-.88a9.23,9.23,0,0,0-.07-.93c0-.3-.07-.59-.12-.86a2.53,2.53,0,0,0-.22-.72,1.33,1.33,0,0,0-.39-.48,1,1,0,0,0-.65-.19H73v5.32H71.86V46.84ZM76,52.49a1.29,1.29,0,0,0,.6-.34,1.71,1.71,0,0,0,.42-.68,3.35,3.35,0,0,0,.16-1.11,3,3,0,0,0-.35-1.53,1.19,1.19,0,0,0-1.12-.59H73v4.34h2.29A2.92,2.92,0,0,0,76,52.49Z"/><path d="M83.37,46.84,86,57.3l2.61-10.46h1.5V59.29H89V48.93h0L86.44,59.29h-.93L82.93,48.93h0V59.29h-1V46.84Z"/><path d="M97.44,46.84l3.22,12.45H99.45l-.91-3.75H95.06l-.93,3.75H93l3.21-12.45Zm.76,7.31-1.38-5.81h0l-1.4,5.81Z"/><path d="M108.53,48.6a2,2,0,0,0-1.5-.66,2,2,0,0,0-1.26.42,3.21,3.21,0,0,0-.87,1.12,6.2,6.2,0,0,0-.5,1.61,10.63,10.63,0,0,0-.16,1.89,11.7,11.7,0,0,0,.16,2,6.12,6.12,0,0,0,.5,1.66,3.21,3.21,0,0,0,.87,1.12,2,2,0,0,0,1.27.42,1.75,1.75,0,0,0,1-.27,2.49,2.49,0,0,0,.73-.75,4,4,0,0,0,.47-1.14,6.4,6.4,0,0,0,.21-1.43h1.1a7.32,7.32,0,0,1-1.07,3.66,2.89,2.89,0,0,1-2.5,1.31,2.84,2.84,0,0,1-1.67-.5,3.72,3.72,0,0,1-1.19-1.37,6.87,6.87,0,0,1-.71-2.05,13.39,13.39,0,0,1,0-5.1,7.44,7.44,0,0,1,.75-2.09,4.08,4.08,0,0,1,1.22-1.4,3,3,0,0,1,2.91-.25,3.13,3.13,0,0,1,1,.76,4.23,4.23,0,0,1,.75,1.27,6.26,6.26,0,0,1,.39,1.75h-1.1A3.52,3.52,0,0,0,108.53,48.6Z"/><path d="M119.65,46.84v1.4h-4.59v3.95h4.28v1.4h-4.28V57.9h4.63v1.39H114V46.84Z"/><path d="M128.83,58.38a2.77,2.77,0,0,1-2.4,1.19,3,3,0,0,1-2.49-1.14,6,6,0,0,1-.89-3.64V46.84h1.1v7.95a4.46,4.46,0,0,0,.59,2.54,1.92,1.92,0,0,0,1.69.86,1.78,1.78,0,0,0,1.6-.86,4.74,4.74,0,0,0,.55-2.54V46.84h1.1v7.95A6.2,6.2,0,0,1,128.83,58.38Z"/><path d="M132.63,48.24v-1.4h6.6v1.4h-2.75v11h-1.1v-11Z"/><path d="M143.36,46.84V59.29h-1.09V46.84Z"/><path d="M152.27,48.6a2,2,0,0,0-1.49-.66,2,2,0,0,0-1.27.42,3.07,3.07,0,0,0-.86,1.12,6.21,6.21,0,0,0-.51,1.61A11.66,11.66,0,0,0,148,53a12.79,12.79,0,0,0,.16,2,6.12,6.12,0,0,0,.51,1.66,3,3,0,0,0,.87,1.12,2,2,0,0,0,1.27.42,1.74,1.74,0,0,0,1-.27,2.38,2.38,0,0,0,.73-.75A4.25,4.25,0,0,0,153,56a7.81,7.81,0,0,0,.21-1.43h1.09a7.12,7.12,0,0,1-1.07,3.66,3,3,0,0,1-4.17.81,3.82,3.82,0,0,1-1.19-1.37,7.47,7.47,0,0,1-.71-2.05,12.84,12.84,0,0,1-.24-2.55,12.1,12.1,0,0,1,.26-2.55,7.77,7.77,0,0,1,.74-2.09,4.11,4.11,0,0,1,1.23-1.4,2.88,2.88,0,0,1,1.68-.52,2.82,2.82,0,0,1,1.22.27,3,3,0,0,1,1,.76,4.23,4.23,0,0,1,.75,1.27,6.26,6.26,0,0,1,.39,1.75h-1.09A3.59,3.59,0,0,0,152.27,48.6Z"/><path d="M161.16,46.84l3.22,12.45h-1.21l-.9-3.75h-3.49l-.92,3.75h-1.12L160,46.84Zm.76,7.31-1.37-5.81h0l-1.39,5.81Z"/><path d="M168.36,46.84V57.9h4.37v1.39h-5.46V46.84Z"/><path d="M179.9,48.54a1.84,1.84,0,0,0-1.41-.6,2.24,2.24,0,0,0-.68.1,1.54,1.54,0,0,0-.59.35,1.57,1.57,0,0,0-.42.66,3,3,0,0,0-.16,1,1.73,1.73,0,0,0,.23.93,1.75,1.75,0,0,0,.6.58,3.9,3.9,0,0,0,.85.38c.31.1.64.2,1,.32a9.08,9.08,0,0,1,1,.41,3.07,3.07,0,0,1,.85.64,2.85,2.85,0,0,1,.6,1,5.27,5.27,0,0,1-.07,3.23,3.34,3.34,0,0,1-.76,1.15,2.76,2.76,0,0,1-1,.65,3.51,3.51,0,0,1-1.14.2,3.4,3.4,0,0,1-1.31-.26,3.11,3.11,0,0,1-1.09-.8,3.91,3.91,0,0,1-.74-1.36,6.31,6.31,0,0,1-.27-2h1a4.09,4.09,0,0,0,.2,1.35,2.94,2.94,0,0,0,.54.94,2.12,2.12,0,0,0,.76.54,2.61,2.61,0,0,0,.9.17,2.76,2.76,0,0,0,.75-.1,1.75,1.75,0,0,0,.67-.36,1.7,1.7,0,0,0,.49-.69,2.93,2.93,0,0,0,.18-1.11,2.15,2.15,0,0,0-.22-1,1.79,1.79,0,0,0-.6-.65,3.19,3.19,0,0,0-.85-.41l-1-.33c-.33-.11-.65-.24-1-.38a3.28,3.28,0,0,1-.85-.58,2.45,2.45,0,0,1-.6-.92,3.89,3.89,0,0,1-.22-1.42,4.69,4.69,0,0,1,.25-1.63,3.36,3.36,0,0,1,.68-1.14,2.85,2.85,0,0,1,1-.66,3,3,0,0,1,1.1-.22,3.1,3.1,0,0,1,1.18.23,2.43,2.43,0,0,1,.95.72,3.62,3.62,0,0,1,.65,1.22,6.89,6.89,0,0,1,.26,1.77h-1A3.27,3.27,0,0,0,179.9,48.54Z"/><path d="M197.23,51.12a1.38,1.38,0,0,0-1.07-.46,1.59,1.59,0,0,0-.53.08,1,1,0,0,0-.45.27,1.2,1.2,0,0,0-.32.5,2.21,2.21,0,0,0-.12.78,1.36,1.36,0,0,0,.17.71,1.41,1.41,0,0,0,.46.45,3,3,0,0,0,.65.29l.74.24a6.88,6.88,0,0,1,.74.32,2.18,2.18,0,0,1,.65.49,2.16,2.16,0,0,1,.46.77,3.35,3.35,0,0,1,.17,1.18,3.4,3.4,0,0,1-.22,1.3,2.7,2.7,0,0,1-.58.88,2.3,2.3,0,0,1-.79.5,2.76,2.76,0,0,1-.88.15,2.62,2.62,0,0,1-1-.2,2.24,2.24,0,0,1-.83-.61,3,3,0,0,1-.57-1,4.76,4.76,0,0,1-.21-1.5h.8a2.9,2.9,0,0,0,.16,1,2.08,2.08,0,0,0,.4.72,1.7,1.7,0,0,0,.59.41,2,2,0,0,0,1.26,0,1.3,1.3,0,0,0,.52-.27,1.4,1.4,0,0,0,.37-.53,2.1,2.1,0,0,0,.14-.85,1.56,1.56,0,0,0-.17-.8,1.41,1.41,0,0,0-.46-.51,3,3,0,0,0-.65-.31l-.74-.25a6.67,6.67,0,0,1-.74-.29,2.4,2.4,0,0,1-.65-.44,2,2,0,0,1-.46-.71,3.08,3.08,0,0,1-.17-1.09,3.61,3.61,0,0,1,.19-1.25,2.65,2.65,0,0,1,.52-.87,2.15,2.15,0,0,1,.74-.5,2,2,0,0,1,.84-.17,2.37,2.37,0,0,1,.9.17,1.93,1.93,0,0,1,.73.55,2.71,2.71,0,0,1,.5.94,4.82,4.82,0,0,1,.2,1.36h-.8A2.45,2.45,0,0,0,197.23,51.12Z"/><path d="M202.42,57.87v1.49h-1V57.87Z"/><path d="M208.09,49.82l2.47,9.54h-.93l-.69-2.88h-2.67l-.71,2.88h-.86l2.46-9.54Zm.59,5.59L207.62,51h0l-1.08,4.44Z"/><path d="M213.8,57.87v1.49h-1V57.87Z"/><path d="M221.19,49.82v1.07h-3.52v3H221V55h-3.28v3.3h3.54v1.07h-4.38V49.82Z"/><path class="cls-1" d="M36.73,3.8s.49,6.6-.16,8.75c0,0-1,.2-1,2a.52.52,0,0,0-.48.54.45.45,0,0,0,.48.48h.79l0,1.81,0,.1A20.84,20.84,0,0,0,25,22.22l0-.1-1.2-1.2.69-.69s.15-.25-.17-.56a.46.46,0,0,0-.65,0,2.09,2.09,0,0,0-2.41-.89s-1.45-.59-6.29-6.29c0,0-1.85-3.1-3.63-1.32S12.81,15,12.81,15s5,4.32,6.08,6.3c0,0-.57.85.7,2.13a.51.51,0,0,0,0,.72.45.45,0,0,0,.68,0l.56-.57,1.29,1.28.08,0a20.93,20.93,0,0,0-4.82,11.48H15.68v-1s-.06-.28-.51-.28-.44.48-.44.48a2.09,2.09,0,0,0-2.33,1.08s-1.45.61-8.9,0c0,0-3.5-.89-3.5,1.63s3.8,1.62,3.8,1.62,6.6-.49,8.75.15c0,0,.2,1,2,1a.52.52,0,0,0,.54.48.45.45,0,0,0,.48-.48v-.8h1.81l0,0A20.88,20.88,0,0,0,22.15,51.8L21,53l-.69-.69s-.24-.15-.56.16a.47.47,0,0,0,0,.66,2.09,2.09,0,0,0-.89,2.41s-.59,1.45-6.29,6.29c0,0-3.1,1.85-1.32,3.63s3.83-1.55,3.83-1.55,4.32-5,6.3-6.07c0,0,.86.57,2.13-.7a.51.51,0,0,0,.72,0,.45.45,0,0,0,0-.68l-.56-.56,1.22-1.24a20.94,20.94,0,0,0,11.36,4.75l0,.11,0,1.81h-.79a.45.45,0,0,0-.48.48.52.52,0,0,0,.48.54c0,1.8,1,2,1,2,.65,2.15.16,8.75.16,8.75s-.9,3.8,1.62,3.8l.12-17.38V0C35.83,0,36.73,3.8,36.73,3.8ZM25.8,28.63l4.55,4.56a9.26,9.26,0,0,0-1.3,3H22.59A15.89,15.89,0,0,1,25.8,28.63ZM22.55,40.32H29a9.59,9.59,0,0,0,1.32,3.25l-4.55,4.56A15.93,15.93,0,0,1,22.55,40.32ZM36.3,54.19A15.88,15.88,0,0,1,28.66,51l4.56-4.56a9.53,9.53,0,0,0,3.08,1.28Zm0-25.12a9.73,9.73,0,0,0-3,1.24l-4.56-4.56a15.77,15.77,0,0,1,7.59-3.12Z"/></g></g></svg>